<svg xmlns="http://www.w3.org/2000/svg" viewBox="0 0 32 32" aria-hidden="true" role="presentation" focusable="false" style="display: block; height: 24px; width: 24px; fill: currentcolor;"><path d="M27 23a4 4 0 1 1 0 8 4 4 0 0 1 0-8zm0 2a2 2 0 1 0 0 4 2 2 0 0 0 0-4zM18 1a11 11 0 0 1 0 22 9.08 9.08 0 0 1-1.51-.12l-.63-.12a7 7 0 0 0-5.94 1.75l-.2.2-4.01 4a1 1 0 0 1-1.32.08l-.1-.08-3-3a1 1 0 0 1-.08-1.32l.08-.1 3.94-3.93a7 7 0 0 0 1.98-5.9l-.09-.61A13.21 13.21 0 0 1 7 12 11 11 0 0 1 18 1zm-1.59 19.82-7.32-7.31.1.62a9 9 0 0 1-2.33 7.42l-.21.22L3.4 25 5 26.59l3.3-3.3a9 9 0 0 1 7.65-2.54l.3.04.16.04zM18 3a9 9 0 0 0-8.9 7.68L19.32 20.9A9 9 0 0 0 18 3z"></path></svg>